<svg xmlns="http://www.w3.org/2000/svg" width="17" height="17" fill="none"><path fill="#0C336D" fill-rule="evenodd" d="M.813 8.5A7.685 7.685 0 0 1 8.5.814 7.686 7.686 0 0 1 16.186 8.5 7.686 7.686 0 0 1 8.5 16.186 7.686 7.686 0 0 1 .813 8.5ZM8.5 1.814A6.685 6.685 0 0 0 1.813 8.5a6.686 6.686 0 1 0 13.373 0A6.686 6.686 0 0 0 8.5 1.814Z" clip-rule="evenodd"/><path fill="#0C336D" fill-rule="evenodd" d="M11.763 6.432a.5.5 0 0 1 0 .707L7.86 11.046a.5.5 0 0 1-.697.01l-1.55-1.47a.5.5 0 0 1 .687-.726l1.197 1.134 3.56-3.562a.5.5 0 0 1 .707 0Z" clip-rule="evenodd"/></svg>