<?xml version="1.0" encoding="UTF-8"?>
<svg id="_Шар_1" data-name=" Шар 1" xmlns="http://www.w3.org/2000/svg" viewBox="0 0 417.68 123.97">
  <defs>
    <style>
      .cls-1 {
        fill: #175287;
      }

      .cls-1, .cls-2, .cls-3 {
        stroke-width: 0px;
      }

      .cls-2 {
        fill: #175288;
      }

      .cls-3 {
        fill: #fefefe;
      }
    </style>
  </defs>
  <path class="cls-1" d="M169.55,83.91c4.61-11.24,8.93-21.63,13.14-32.05,6.25-15.47,12.44-30.96,18.59-46.47.83-2.1,1.87-3.07,4.33-2.99,6.93.2,13.86.05,20.8.12,1.1.01,2.93-.07,3.01,1.21.1,1.7-1.72,1.66-3.04,1.8-6.82.73-9.44,3.2-9.52,9.95-.28,25.29-.41,50.59-.51,75.89,0,2.5.23,5.12,1,7.48,1.22,3.72,4.07,5.79,8.1,5.99,1.46.07,2.94,0,4.38.22.94.14,1.73.73,1.61,1.92-.1.99-.85,1.32-1.65,1.44-1.18.17-2.39.28-3.58.29-12,.02-24,.02-36,0-.92,0-1.89,0-2.76-.27-.82-.25-1.17-1.06-1.05-1.94.11-.79.79-1.1,1.44-1.14,1.04-.08,2.12.17,3.15.05,9.39-1.05,11.56-3.81,11.65-16.2.16-21.84.04-43.68.04-66.09-1.95,1.69-2.51,3.67-3.25,5.49-9.87,24.15-19.7,48.32-29.56,72.47-.7,1.72-1.69,3.32-2.33,5.05-.42,1.12-.46,2.58-1.98,2.55-1.46-.03-1.64-1.57-2.07-2.61-5.86-14.05-11.74-28.09-17.51-42.18-5.29-12.94-10.45-25.94-15.68-38.9-.38-.95-.92-1.83-1.77-2.72.49,5.75-.21,11.43-.23,17.13-.06,17.31-.05,34.63-.05,51.94,0,9.72,2.66,12.73,12.29,13.99,1.38.18,2.95.48,2.74,2.17-.19,1.56-1.87,1.19-2.98,1.2-9.6.05-19.2.07-28.8.03-.87,0-2.36.67-2.36-1.15,0-1.27.85-1.68,2.02-2.02,9.15-2.66,10.75-4.79,10.73-14.4-.04-23.97-.12-47.95-.23-71.92,0-1.85-.23-3.72-.49-5.56-.64-4.46-2.72-6.55-7.08-7.22-1.05-.16-2.21-.02-3.13-.43-.87-.39-2.67,0-2.46-1.41.18-1.21,1.34-2.17,2.92-2.17,7.47.02,14.94.08,22.4-.06,2.3-.04,2.56,1.64,3.11,2.98,10.47,25.41,20.88,50.84,31.32,76.27.19.46.49.87,1.3,2.26h0Z"/>
  <path class="cls-2" d="M209.54,123.72c-68.41,0-136.83,0-205.24.04-2.38,0-3.63-.22-3.43-3.2.18-2.59.16-3.89,3.53-3.89,58.67.02,117.35-.19,176.02-.2,44.67,0,89.35.43,134.02.23,32.94-.14,65.88-.05,98.81.21,3.49.03,5.41,3.08,3.91,6.17-.64,1.32-1.83.78-2.8.78-42.27,0-84.55-.04-126.82-.06-26.01,0-52.01,0-78.02,0v-.08h.02Z"/>
  <path class="cls-1" d="M85.65,108.91c-5.72,0-11.44.05-17.16-.05-.86-.02-2.39.44-2.52-1.19-.11-1.28.85-1.82,1.96-2.14.76-.22,1.54-.45,2.26-.78,4.84-2.23,6.37-5.63,4.63-10.79-2.04-6.04-4.29-12.02-6.38-18.05-.54-1.57-1.32-2.43-3.12-2.43-11.06,0-22.12-.04-33.19-.13-1.79,0-2.69.95-3.24,2.41-2.39,6.34-4.86,12.65-7.09,19.04-1.51,4.34-.42,6.52,3.84,8.54,1.8.85,3.67,1.55,5.52,2.27.94.36,1.05,1.08,1.01,1.92-.05,1.1-.85,1.22-1.67,1.22-9.59,0-19.17.03-28.76,0-2.19,0-2.02-1.27-1.1-2.62.36-.52.94-1.05,1.53-1.25,7.8-2.54,10.65-9.4,13.33-15.98C26.6,61.68,37.39,34.35,48.31,7.07c1.02-2.53,1.81-6.46,4.4-6.45,2.6.01,3.57,3.85,4.59,6.46,10.5,26.87,21.03,53.72,31.48,80.61,2.88,7.41,6.85,13.81,14.39,17.32,1.24.57,2.68,1.39,2.31,2.87-.4,1.56-2.17,1.2-3.43,1.22-5.46.05-10.93.02-16.39.02v-.21h-.01Z"/>
  <path class="cls-2" d="M283.25,110.4c-19.77.58-32.38-10.18-40.98-26.56-11.47-21.82-8.24-49.68,7.71-68.48,10.95-12.9,25.37-16.74,41.68-14.95,5.86.65,11.33,2.68,16.59,5.32,4.93,2.47,6.05,2.08,8.21-2.82.7-1.59,1.49-3.06,3.42-2.61,1.76.41,1.15,2.13,1.24,3.38.67,9.64.85,19.32,1.97,28.94.13,1.1,1.57,3.03-1.11,3.39-2.08.28-2.68-.87-3.13-2.67-2.79-11.02-8.89-19.68-19.35-24.47-11.01-5.04-21.38-3.19-30.32,4.95-9.84,8.96-14.4,20.78-15.92,33.55-1.62,13.59,1.1,26.7,6.83,39.21,9.91,21.65,38.01,20.44,50.24,6.31,3.84-4.44,7.28-9.18,9.11-14.82.68-2.11,2-2.48,3.6-2.06,2.32.6.66,2.34.34,3.19-5.12,13.63-12.61,25.11-27.47,29.88-4.16,1.33-8.36,1.33-12.64,1.32h-.02Z"/>
  <path class="cls-1" d="M375.31,108.68h-36.4c-1.2,0-2.41,0-3.59-.18-.9-.13-1.96-.4-2-1.58-.04-1.35,1.08-1.25,2-1.33.53-.04,1.07-.08,1.59-.16,7.46-1.25,10.65-4.89,10.66-12.45.02-25.04-.02-50.08,0-75.12,0-2.43-.42-4.78-1.21-7.02-1.37-3.88-4.76-4.6-8.32-4.94-1.19-.11-2.4-.18-3.56-.42-.86-.17-1.37-.84-1.25-1.76.1-.76.71-1.09,1.42-1.15.8-.07,1.6-.1,2.39-.1,12.8,0,25.6-.03,38.4.04,1.12,0,3.02-.86,3.21,1.2.21,2.29-1.72,1.93-3.12,1.9-2.7-.06-5.29.54-7.7,1.6-3.42,1.51-5.26,4.14-5.28,8.09-.09,16.77-.31,33.54-.46,50.3-.07,7.85-.17,15.71-.11,23.56.02,2.91.34,5.83.8,8.71.55,3.49,4.41,6.78,8.29,6.88,6.66.16,13.36.48,19.98-.06,8.47-.68,13.59-6.75,17.97-13.19,2.92-4.29,4.3-9.33,4.98-14.5.15-1.17.18-2.56,1.87-2.55,2.05,0,1.3,1.66,1.3,2.66.03,9.19-.19,18.38.05,27.57.08,3.27-1.29,3.77-3.95,3.65-12.67-.57-25.32.53-37.98.35h.02Z"/>
  <path class="cls-3" d="M32.58,66.41c5.5-13.59,10.75-26.58,16.09-39.78,1.87,1.92,2.17,4.38,3.02,6.54,4.03,10.11,7.93,20.27,11.93,30.4.68,1.73,1.22,2.92-1.58,2.89-9.57-.11-19.15-.04-29.46-.04h0Z"/>
</svg>