<?xml version="1.0" encoding="UTF-8"?><svg id="Layer_1" xmlns="http://www.w3.org/2000/svg" xmlns:xlink="http://www.w3.org/1999/xlink" viewBox="0 0 78 78"><defs><style>.cls-1{stroke-width:0px;}.cls-1,.cls-2{fill:none;}.cls-2{stroke:#164893;stroke-linecap:round;stroke-linejoin:round;stroke-width:2px;}.cls-3{clip-path:url(#clippath);}</style><clipPath id="clippath"><rect class="cls-1" x="6" y=".62" width="66" height="75.88"/></clipPath></defs><g class="cls-3"><path class="cls-2" d="M39,11.54c17.86,0,32.33,14.39,32.33,32.15s-14.48,32.15-32.33,32.15S6.67,61.44,6.67,43.69,21.14,11.54,39,11.54ZM13.48,43.69c0,14.01,11.43,25.38,25.52,25.38s25.52-11.36,25.52-25.38-11.43-25.38-25.52-25.38-25.52,11.36-25.52,25.38Z"/><path class="cls-2" d="M39,11.54c2.6,0,4.72-2.1,4.72-4.69s-2.11-4.69-4.72-4.69-4.72,2.1-4.72,4.69,2.11,4.69,4.72,4.69Z"/><path class="cls-2" d="M40.91,45.59c1.05-1.05,1.05-2.75,0-3.8-1.05-1.05-2.76-1.05-3.82,0-1.05,1.05-1.05,2.75,0,3.8,1.05,1.05,2.76,1.05,3.82,0Z"/><path class="cls-2" d="M51.11,31.64l-16.59,6.02c-.74.27-1.32.84-1.59,1.58l-6.05,16.49,16.59-6.02c.74-.27,1.32-.84,1.59-1.58l6.05-16.49Z"/><path class="cls-2" d="M39,18.31v2.8"/><path class="cls-2" d="M20.95,25.74l1.99,1.98"/><path class="cls-2" d="M13.48,43.69h2.82"/><path class="cls-2" d="M20.95,61.63l1.99-1.98"/><path class="cls-2" d="M39,69.06v-2.8"/><path class="cls-2" d="M57.04,61.63l-1.99-1.98"/><path class="cls-2" d="M64.52,43.69h-2.82"/><path class="cls-2" d="M57.04,25.74l-1.99,1.98"/></g></svg>