<?xml version="1.0" encoding="UTF-8"?><svg id="Layer_1" xmlns="http://www.w3.org/2000/svg" xmlns:xlink="http://www.w3.org/1999/xlink" viewBox="0 0 78 78"><defs><style>.cls-1{fill:#164893;stroke:#164893;stroke-miterlimit:10;}.cls-2{fill:none;stroke-width:0px;}.cls-3{clip-path:url(#clippath);}</style><clipPath id="clippath"><rect class="cls-2" x="1.5" y="18" width="75" height="42"/></clipPath></defs><g class="cls-3"><path class="cls-1" d="M33.9,59.93c-.99,0-1.94-.4-2.68-1.14l-12.47-12.68h-7.01v-1.04h7.45l12.77,12.99c1.29,1.28,3.05.92,4.04-.06.52-.52.81-1.17.82-1.84.01-.78-.35-1.56-1.06-2.26l.74-.74c.91.91,1.39,1.95,1.37,3.01-.01.94-.42,1.85-1.13,2.56-.7.7-1.65,1.13-2.61,1.19-.08,0-.16,0-.23,0h0Z"/><path class="cls-1" d="M42.8,59.49c-.87,0-1.72-.31-2.35-.94l-9.19-9.13.74-.74,9.19,9.13c.45.44,1.07.67,1.75.63.7-.04,1.37-.34,1.89-.86.52-.52.83-1.18.86-1.88.03-.67-.19-1.29-.64-1.74l-9.19-9.13.74-.74,9.19,9.13c.66.65.99,1.55.94,2.52-.05.95-.47,1.86-1.17,2.56-.78.77-1.79,1.17-2.77,1.17h0Z"/><path class="cls-1" d="M48.82,55.98c-1.01,0-1.96-.39-2.67-1.1l-10.19-10.13.74-.74,10.19,10.13c.51.51,1.2.79,1.93.79s1.42-.28,1.93-.79c.51-.51.8-1.19.8-1.92s-.28-1.41-.8-1.92l-10.19-10.13.74-.74,10.19,10.13c.71.71,1.1,1.65,1.1,2.66s-.39,1.95-1.1,2.66c-.71.71-1.66,1.1-2.67,1.1Z"/><path class="cls-1" d="M53.79,51.75c-.83,0-1.74-.3-2.62-1.17l-9.16-8.96.73-.74,9.16,8.96c1.89,1.87,3.8.14,3.88.06.46-.45.72-1.16.72-1.94s-.27-1.49-.73-1.95l-15.23-15.53c-4.64,4.59-8,4.58-9.61,4.14-1.5-.4-2.64-1.5-2.97-2.86-.29-1.17.08-2.36.98-3.18l9.15-8.3h12.19c1.71,0,3.4.29,5.01.87l10.36,3.69-.35.98-10.36-3.69c-1.5-.53-3.06-.81-4.66-.81h-11.78l-8.85,8.03c-.62.57-.87,1.35-.67,2.16.24.99,1.09,1.8,2.23,2.1,3.45.93,7.41-2.66,8.96-4.24l.38-.39,15.98,16.29c.65.65,1.03,1.63,1.03,2.68s-.38,2.03-1.04,2.69c-.41.41-1.47,1.1-2.73,1.1h0Z"/><path class="cls-1" d="M13.04,51.22H1.57v-1.04h10.42v-31.07H1.57v-1.04h11.47v33.15Z"/><path class="cls-1" d="M76.43,51.22h-11.47V18.07h11.47v1.04h-10.42v31.07h10.42v1.04Z"/><path class="cls-1" d="M31.07,22.73H12.52v1.04h18.56v-1.04Z"/><path class="cls-1" d="M65.48,45.06h-9.32v1.04h9.32v-1.04Z"/><path class="cls-1" d="M6.97,39.81h-1.05v5.99h1.05v-5.99Z"/><path class="cls-1" d="M72.24,39.81h-1.05v5.99h1.05v-5.99Z"/><path class="cls-1" d="M43.85,26.03l-6.84,6.04.7.78,6.84-6.04-.7-.78Z"/></g></svg>