<?xml version="1.0" encoding="UTF-8"?><svg id="Layer_1" xmlns="http://www.w3.org/2000/svg" xmlns:xlink="http://www.w3.org/1999/xlink" viewBox="0 0 78 78"><defs><style>.cls-1{stroke-width:0px;}.cls-1,.cls-2{fill:none;}.cls-3{clip-path:url(#clippath);}.cls-2{stroke:#164893;stroke-miterlimit:10;stroke-width:2px;}</style><clipPath id="clippath"><rect class="cls-1" x="7.5" y="7.5" width="63" height="63"/></clipPath></defs><g class="cls-3"><path class="cls-2" d="M27.86,54.73l-4.61-4.61v-2.02l2.03-1.75c.1-.62.3-1.04.4-1.66-.19-.4-.24-.77-.34-1.16-.52-.39-.85-.66-1.36-1.04l-2.28.04c-.57-.56-.87-.87-1.45-1.45l.03-4.44c.59-.56.92-.86,1.5-1.42l2.15.1c.54-.39.9-.64,1.45-1.04.1-.36.21-.69.39-1.07-.1-.62-.44-1.04-.54-1.66l-1.96-1.69v-2.02l4.61-4.61h2.02l1.69,1.97c.6.1,1.05.31,1.65.4.39-.19.75-.23,1.12-.31.4-.53.66-.84,1.06-1.37l-.04-2.25c.57-.57.87-.87,1.45-1.45l4.44.03c.56.59.86.9,1.42,1.49l-.09,2.2c.39.53.64.9,1.03,1.43.37.11.72.23,1.12.42.62-.1,1.06-.44,1.66-.54l1.75-2.02h2.02l4.61,4.61v2.02l-2.01,1.73c-.11.59-.34,1.03-.46,1.62.19.4.23.74.32,1.1.53.4.86.67,1.39,1.09l2.22-.06c.57.57.89.87,1.46,1.45l-.04,4.42c-.59.56-.92.86-1.5,1.42l-2.16-.1c-.54.39-.9.64-1.45,1.03-.1.36-.21.69-.4,1.06.1.62.44,1.04.54,1.66l2.09,1.8v2.02l-4.61,4.61h-2.02l-1.81-2.09c-.6-.1-1.05-.31-1.65-.4-.39.19-.75.23-1.12.31-.4.53-.66.84-1.06,1.37l.04,2.25c-.57.57-.87.87-1.45,1.45l-4.43-.03c-.56-.6-.86-.92-1.42-1.52l.11-2.1c-.4-.54-.66-.92-1.06-1.46-.34-.1-.69-.21-1.07-.4-.59.11-1.02.47-1.6.59l-1.73,2.02h-2.02l-.03.03Z"/><path class="cls-2" d="M39.01,44.72c3.17,0,5.73-2.56,5.73-5.72s-2.57-5.72-5.73-5.72-5.73,2.56-5.73,5.72,2.57,5.72,5.73,5.72Z"/><path class="cls-2" d="M21.81,56.16h-8.6v8.59"/><path class="cls-2" d="M11.6,51.18c-5.04-11.03-2.89-24.44,6.2-33.52,11.71-11.69,30.81-11.62,42.5.07l3.87,3.86"/><path class="cls-2" d="M66.4,26.82c5.04,11.03,2.89,24.44-6.2,33.52-11.71,11.69-30.81,11.62-42.5-.07l-3.87-3.86"/><path class="cls-2" d="M56.2,21.82h8.6v-8.59"/></g></svg>