<?xml version="1.0" encoding="UTF-8"?><svg id="Layer_1" xmlns="http://www.w3.org/2000/svg" xmlns:xlink="http://www.w3.org/1999/xlink" viewBox="0 0 78 78"><defs><style>.cls-1{stroke-width:0px;}.cls-1,.cls-2{fill:none;}.cls-2{stroke:#164893;stroke-linecap:round;stroke-linejoin:round;stroke-width:2px;}.cls-3{clip-path:url(#clippath);}</style><clipPath id="clippath"><rect class="cls-1" x="6" y="4" width="66" height="70"/></clipPath></defs><g class="cls-3"><path class="cls-2" d="M25.51,22.63c-.2,0-.36-.16-.36-.36v-2.77c0-.17.12-.32.28-.35.82-.19,3.07-.64,5.91-.92,2.32-.22,5.07-.4,7.51-.4s5.19.17,7.51.4c2.84.27,5.09.73,5.91.92.17.04.28.18.28.35v2.77c0,.2-.16.36-.36.36h-26.7Z"/><path class="cls-2" d="M52.42,22.63c-2.26,3.75-8.78,6.03-13.54,5.99-4.76.04-11.34-2.35-13.6-6.1"/><path class="cls-2" d="M52.56,21.39c2.17-1.65,3.37-4.16,3.77-5.78.17-.68,0-1.39-.44-1.93-3.49-4.16-9.52-7.25-17.03-7.31-7.5.06-13.53,3.15-17.02,7.3-.45.54-.61,1.27-.44,1.96.41,1.62,1.54,4.14,3.76,5.75"/><path class="cls-2" d="M36.44,13.01c.37.99,1.31,1.7,2.42,1.7s2.05-.71,2.42-1.7"/><path class="cls-2" d="M38.86,14.72v-3.75"/><path class="cls-2" d="M31.18,42.64l-1.18,5.26"/><path class="cls-2" d="M8.98,61.42l-2.93,12.46"/><path class="cls-2" d="M26.1,50.82l-6.06,1.85"/><path class="cls-2" d="M46.58,42.64l1.21,5.41"/><path class="cls-2" d="M69.02,61.42l2.93,12.46"/><path class="cls-2" d="M51.81,50.79l6.16,1.88"/><path class="cls-2" d="M21.92,57.1l-12.29,5.51s-.05,0-.06-.02l-2.7-6.17s0-.05.02-.06l12.29-5.51s.05,0,.06.02l2.7,6.17s0,.05-.02.06Z"/><path class="cls-2" d="M13.03,53.6l2.74,6.26"/><path class="cls-2" d="M56.08,57.1l12.29,5.51s.05,0,.06-.02l2.7-6.17s0-.05-.02-.06l-12.29-5.51s-.05,0-.06.02l-2.7,6.17s0,.05.02.06Z"/><path class="cls-2" d="M64.97,53.6l-2.74,6.26"/><path class="cls-2" d="M50.86,35.36c-.22.74-.46,1.44-.74,2.08-1.53,3.6-5.56,8.63-11.26,8.63s-9.73-5.02-11.26-8.63c-.27-.64-.52-1.33-.73-2.07h0c-2.39.32-2.95-1.86-3.45-4.36-.47-2.38,1.22-3.03,2.3-2.28-.13-1.71-.13-3.82-.01-5.47"/><path class="cls-2" d="M52.03,23.25c.12,1.67.1,3.79-.03,5.51,1.08-.75,2.82-.14,2.35,2.24-.5,2.5-1.06,4.68-3.45,4.36"/><path class="cls-2" d="M31.99,60.51l6.83-5.26-8.87-7.36c-.15-.12-.35-.13-.51-.03l-3.15,2.06c-.19.12-.25.37-.15.57l5.2,9.87c.12.24.43.3.64.14Z"/><path class="cls-2" d="M45.91,60.51l-6.83-5.26,8.87-7.36c.14-.12.35-.13.51-.03l3.15,2.06c.19.12.25.37.15.57l-5.2,9.87c-.12.24-.43.3-.64.14Z"/><path class="cls-2" d="M35.04,58.25l2.22,3.59-2.47,12.05"/><path class="cls-2" d="M42.86,58.25l-2.22,3.59,2.47,12.05"/><path class="cls-2" d="M37.26,61.84h3.39"/><path class="cls-2" d="M28.99,73.89v-5.35c0-.26-.21-.47-.47-.47h-13.23c-.26,0-.47.21-.47.47v5.35"/><path class="cls-2" d="M63.17,73.89v-5.35c0-.26-.21-.47-.47-.47h-13.23c-.26,0-.47.21-.47.47v5.35"/><path class="cls-2" d="M28.99,70.78l-6.62,3.07c-.29.14-.63.14-.92,0l-6.62-3.07"/><path class="cls-2" d="M63.17,70.78l-6.62,3.07c-.29.14-.63.14-.92,0l-6.62-3.07"/></g></svg>