<?xml version="1.0" encoding="UTF-8"?><svg id="Layer_1" xmlns="http://www.w3.org/2000/svg" xmlns:xlink="http://www.w3.org/1999/xlink" viewBox="0 0 78 78"><defs><style>.cls-1{fill:none;}.cls-1,.cls-2{stroke-width:0px;}.cls-2{fill:#164893;}.cls-3{clip-path:url(#clippath);}</style><clipPath id="clippath"><rect class="cls-1" x="12" y="9.5" width="54" height="59"/></clipPath></defs><g class="cls-3"><path class="cls-2" d="M51.45,25.97c-.59,0-1.07-.48-1.07-1.07v-6.97h-22.77v6.97c0,.59-.48,1.07-1.07,1.07s-1.07-.48-1.07-1.07v-8.04c0-.59.48-1.07,1.07-1.07h24.93c.59,0,1.07.48,1.07,1.07v8.04c0,.59-.48,1.07-1.07,1.07h-.02Z"/><path class="cls-2" d="M56.75,38.98c-.59,0-1.07-.48-1.07-1.07v-11.92H22.32v11.92c0,.59-.48,1.07-1.07,1.07s-1.07-.48-1.07-1.07v-13.01c0-.59.48-1.07,1.07-1.07h35.51c.59,0,1.07.48,1.07,1.07v13.01c0,.59-.48,1.07-1.07,1.07Z"/><path class="cls-2" d="M56.75,68.5H21.25c-.46,0-.87-.31-1.03-.74l-8.18-25.23c-.17-.52.09-1.11.61-1.33l25.91-11.13c.26-.11.59-.11.85,0l25.91,11.13c.5.22.76.78.61,1.33l-8.16,25.23c-.15.44-.57.74-1.03.74ZM22.03,66.34h33.94l7.61-23.55-24.58-10.57-24.6,10.59,7.61,23.55.02-.02Z"/><path class="cls-2" d="M62.64,50.33c-.15,0-.31-.04-.46-.11l-23.16-11.13-23.21,11.13c-.55.26-1.18.04-1.44-.5-.26-.54-.04-1.18.5-1.44l23.64-11.35c.31-.15.63-.15.94,0l23.64,11.35c.55.26.76.89.5,1.44-.2.39-.57.61-.98.61h.02Z"/><path class="cls-2" d="M39,55.62c-.59,0-1.07-.48-1.07-1.07v-23.46c0-.59.48-1.07,1.07-1.07s1.07.48,1.07,1.07v23.46c0,.59-.48,1.07-1.07,1.07Z"/><path class="cls-2" d="M39,17.93c-.59,0-1.07-.48-1.07-1.07v-6.3c0-.59.48-1.07,1.07-1.07s1.07.48,1.07,1.07v6.27c0,.59-.48,1.07-1.07,1.07v.02Z"/><path class="cls-2" d="M47.59,21.96h-17.21c-.59,0-1.07-.48-1.07-1.07s.48-1.07,1.07-1.07h17.21c.59,0,1.07.48,1.07,1.07s-.48,1.07-1.07,1.07Z"/><path class="cls-2" d="M63.78,68.5H14.22c-.59,0-1.07-.48-1.07-1.07s.48-1.07,1.07-1.07h49.55c.59,0,1.07.48,1.07,1.07s-.48,1.07-1.07,1.07Z"/></g></svg>