<?xml version="1.0" encoding="UTF-8"?><svg id="Layer_1" xmlns="http://www.w3.org/2000/svg" xmlns:xlink="http://www.w3.org/1999/xlink" viewBox="0 0 78 78"><defs><style>.cls-1{stroke-width:0px;}.cls-1,.cls-2{fill:none;}.cls-2{stroke:#164893;stroke-linecap:round;stroke-linejoin:round;stroke-width:2px;}.cls-3{clip-path:url(#clippath);}</style><clipPath id="clippath"><rect class="cls-1" x=".89" y=".62" width="76" height="77"/></clipPath></defs><g class="cls-3"><path class="cls-2" d="M38.96,10.96c15.48,0,28.02,12.55,28.02,28.02s-12.55,28.02-28.02,28.02-28.02-12.55-28.02-28.02,12.55-28.02,28.02-28.02ZM21.87,38.98c0,9.44,7.65,17.09,17.09,17.09s17.09-7.65,17.09-17.09-7.65-17.09-17.09-17.09-17.09,7.65-17.09,17.09Z"/><path class="cls-2" d="M47.68,12.35l-3.4,10.39c-1.67-.54-3.46-.84-5.32-.84s-3.65.3-5.32.84l-3.4-10.39c2.74-.9,5.68-1.39,8.72-1.39s5.98.49,8.72,1.39h0Z"/><path class="cls-2" d="M47.68,65.61c-2.74.9-5.68,1.39-8.72,1.39s-5.98-.49-8.72-1.39l3.4-10.39c1.67.54,3.46.85,5.32.85s3.65-.3,5.32-.85l3.4,10.39h0Z"/><path class="cls-2" d="M66.98,38.98c0,3.04-.49,5.98-1.39,8.72l-10.39-3.4c.54-1.67.85-3.46.85-5.32s-.3-3.65-.85-5.32l10.39-3.4c.9,2.74,1.39,5.68,1.39,8.72h0Z"/><path class="cls-2" d="M21.87,38.98c0,1.86.3,3.65.84,5.32l-10.39,3.4c-.9-2.74-1.39-5.68-1.39-8.72s.49-5.98,1.39-8.72l10.39,3.4c-.54,1.67-.84,3.46-.84,5.32h0Z"/><path class="cls-2" d="M35.5,11.18v-5.48c0-1.93,1.57-3.5,3.5-3.5s3.5,1.57,3.5,3.5v5.48"/><path class="cls-2" d="M38.96,7.47c.68,0,1.24-.55,1.24-1.24s-.55-1.24-1.24-1.24-1.24.55-1.24,1.24.55,1.24,1.24,1.24Z"/><path class="cls-2" d="M35.5,11.18v-5.48c0-1.93,1.57-3.5,3.5-3.5s3.5,1.57,3.5,3.5v5.48"/><path class="cls-2" d="M38.96,7.47c.68,0,1.24-.55,1.24-1.24s-.55-1.24-1.24-1.24-1.24.55-1.24,1.24.55,1.24,1.24,1.24Z"/><path class="cls-2" d="M35.5,66.82v5.48c0,1.93,1.57,3.5,3.5,3.5s3.5-1.57,3.5-3.5v-5.48"/><path class="cls-2" d="M38.96,73c.68,0,1.24-.55,1.24-1.24s-.55-1.24-1.24-1.24-1.24.55-1.24,1.24.55,1.24,1.24,1.24Z"/><path class="cls-2" d="M66.82,35.5h5.48c1.93,0,3.5,1.57,3.5,3.5s-1.57,3.5-3.5,3.5h-5.48"/><path class="cls-2" d="M71.76,40.19c-.68,0-1.24-.55-1.24-1.24s.55-1.24,1.24-1.24,1.24.55,1.24,1.24-.55,1.24-1.24,1.24Z"/><path class="cls-2" d="M66.82,35.5h5.48c1.93,0,3.5,1.57,3.5,3.5s-1.57,3.5-3.5,3.5h-5.48"/><path class="cls-2" d="M71.76,40.19c-.68,0-1.24-.55-1.24-1.24s.55-1.24,1.24-1.24,1.24.55,1.24,1.24-.55,1.24-1.24,1.24Z"/><path class="cls-2" d="M11.18,35.5h-5.48c-1.93,0-3.5,1.57-3.5,3.5s1.57,3.5,3.5,3.5h5.48"/><path class="cls-2" d="M6.24,40.19c.68,0,1.24-.55,1.24-1.24s-.55-1.24-1.24-1.24-1.24.55-1.24,1.24.55,1.24,1.24,1.24Z"/><path class="cls-2" d="M19.09,28.38c2.16-3.85,5.34-7.05,9.18-9.23"/></g></svg>