<?xml version="1.0" encoding="UTF-8"?><svg id="Layer_1" xmlns="http://www.w3.org/2000/svg" xmlns:xlink="http://www.w3.org/1999/xlink" viewBox="0 0 78 78"><defs><style>.cls-1{fill:none;}.cls-1,.cls-2{stroke-width:0px;}.cls-2{fill:#164893;}.cls-3{clip-path:url(#clippath);}</style><clipPath id="clippath"><rect class="cls-1" x="15.5" y="8.5" width="47" height="61"/></clipPath></defs><g class="cls-3"><path class="cls-2" d="M29.17,34.9c-.37,0-.72-.14-.98-.4l-2.67-2.65,1.94-1.93,1.58,1.57,3.75-4.72,2.16,1.69-4.71,5.92c-.24.3-.61.49-1,.51h-.08Z"/><path class="cls-2" d="M52.19,29.44h-12.84v2.73h12.84v-2.73Z"/><path class="cls-2" d="M52.19,41.28h-12.84v2.73h12.84v-2.73Z"/><path class="cls-2" d="M52.19,53.11h-12.84v2.73h12.84v-2.73Z"/><path class="cls-2" d="M61.13,69.5H16.88c-.76,0-1.38-.61-1.38-1.37V12.6c0-.76.62-1.37,1.38-1.37h6.21v2.73h-4.84v52.81h41.5V13.96h-4.9v-2.73h6.28c.76,0,1.38.61,1.38,1.37v55.54c0,.76-.62,1.37-1.38,1.37h0Z"/><path class="cls-2" d="M29.17,46.68c-.37,0-.72-.14-.98-.4l-2.67-2.65,1.94-1.93,1.58,1.57,3.75-4.72,2.16,1.69-4.71,5.92c-.24.31-.61.49-1,.51h-.08Z"/><path class="cls-2" d="M29.17,58.57c-.37,0-.72-.14-.98-.4l-2.67-2.65,1.94-1.94,1.58,1.57,3.75-4.72,2.16,1.69-4.71,5.92c-.24.3-.61.49-1,.51h-.08Z"/><path class="cls-2" d="M49.75,8.5h-21.5c-.76,0-1.38.61-1.38,1.37v4.7c0,3.18,2.61,5.76,5.8,5.76h12.63c3.2,0,5.8-2.59,5.8-5.76v-4.7c0-.76-.62-1.37-1.37-1.37h0ZM48.37,14.57c0,1.67-1.37,3.03-3.05,3.03h-12.63c-1.68,0-3.05-1.36-3.05-3.03v-3.34h18.74v3.34Z"/></g></svg>