<?xml version="1.0" encoding="UTF-8"?>
<svg id="Layer_1" data-name="Layer 1" xmlns="http://www.w3.org/2000/svg" viewBox="0 0 78 78">
  <defs>
    <style>
      .cls-1 {
        fill: #164893;
        stroke-width: 0px;
      }
    </style>
  </defs>
  <path class="cls-1" d="M15.8,46.98c1.61,0,2.34.55,3.27,1.25,1.02.77,2.18,1.63,4.42,1.63s3.4-.87,4.42-1.63c.93-.7,1.66-1.25,3.27-1.25s2.34.55,3.27,1.25c1.02.77,2.18,1.63,4.42,1.63s3.4-.87,4.42-1.63c.93-.7,1.66-1.25,3.27-1.25s2.34.55,3.27,1.25c1.02.77,2.18,1.63,4.42,1.63s3.4-.87,4.42-1.63c.93-.7,1.66-1.25,3.27-1.25.53,0,.96-.43.96-.96s-.43-.96-.96-.96c-2.24,0-3.4.87-4.42,1.63-.93.7-1.66,1.25-3.27,1.25-.37,0-.67-.03-.96-.09v-7.6h1.92c.53,0,.96-.43.96-.96v-1.92h.96c.53,0,.96-.43.96-.96s-.43-.96-.96-.96h-.96v-1.92c0-.53-.43-.96-.96-.96h-1.07l-1.83-15.49c-.06-.48-.46-.85-.95-.85h-2.88v-2.88c0-.53-.43-.96-.96-.96s-.96.43-.96.96v2.88h-2.88c-.49,0-.89.37-.95.85l-1.83,15.49h-1.07v-7.69c0-.53-.43-.96-.96-.96h-5.77v-2.88c.53,0,.96-.43.96-.96s-.43-.96-.96-.96h-8.65c-.53,0-.96.43-.96.96s.43.96.96.96v3.84h-3.84c-.53,0-.96.43-.96.96s.43.96.96.96h.5l3.34,4.18v1.59h-1.92c-.53,0-.96.43-.96.96v1.92h-.96c-.53,0-.96.43-.96.96s.43.96.96.96h.96v1.92c0,.53.43.96.96.96h1.92v7.6c-.29.06-.6.09-.96.09-1.61,0-2.34-.55-3.27-1.25-1.02-.77-2.18-1.63-4.42-1.63-.53,0-.96.43-.96.96s.43.96.96.96ZM28.29,45.69c-.6.3-1.09.65-1.54,1-.13.1-.26.19-.38.29v-6.73h1.92v5.44ZM46.55,45.06c-2.24,0-3.4.87-4.42,1.63-.93.7-1.66,1.25-3.27,1.25s-2.34-.55-3.27-1.25c-1.02-.77-2.18-1.63-4.42-1.63-.21,0-.4.02-.6.03l4.83-4.83h6.9l4.83,4.83c-.19,0-.38-.03-.6-.03ZM30.21,42.74v-2.49h2.49l-2.49,2.49ZM47.52,42.74l-2.49-2.49h2.49v2.49ZM51.36,46.98c-.12-.1-.25-.19-.38-.29-.45-.35-.94-.7-1.54-1v-5.44h1.92v6.73ZM52.13,32.56h-3.65v-2.88h3.33l.32,2.88ZM43.17,29.68h3.39v2.88h-3.73l.34-2.88ZM51.59,27.75h-3.11v-3.84h2.68l.43,3.84ZM46.55,27.75h-3.16l.46-3.84h2.7v3.84ZM50.51,18.14l.43,3.84h-2.47v-3.84h2.04ZM46.55,18.14v3.84h-2.47l.46-3.84h2.02ZM26.37,21.03h4.81v2.88h-4.81v-2.88ZM26.37,25.83h11.53v6.73h-11.53v-6.73ZM23.56,26.79h.88v1.11l-.88-1.11ZM23.49,34.48h30.76v.96h-30.76v-.96ZM23.49,38.33v-.96h30.76v.96h-30.76Z"/>
  <path class="cls-1" d="M61.93,49.86c-2.24,0-3.4.87-4.42,1.63-.93.7-1.67,1.25-3.27,1.25s-2.34-.55-3.27-1.25c-1.02-.77-2.18-1.63-4.42-1.63s-3.4.87-4.42,1.63c-.93.7-1.67,1.25-3.27,1.25s-2.34-.55-3.27-1.25c-1.02-.77-2.18-1.63-4.42-1.63s-3.4.87-4.42,1.63c-.93.7-1.67,1.25-3.27,1.25s-2.34-.55-3.27-1.25c-1.02-.77-2.18-1.63-4.42-1.63-.53,0-.96.43-.96.96s.43.96.96.96c1.6,0,2.34.55,3.27,1.25,1.02.77,2.18,1.63,4.42,1.63s3.4-.87,4.42-1.63c.93-.7,1.67-1.25,3.27-1.25s2.34.55,3.27,1.25c1.02.77,2.18,1.63,4.42,1.63s3.4-.87,4.42-1.63c.93-.7,1.67-1.25,3.27-1.25s2.34.55,3.27,1.25c1.02.77,2.18,1.63,4.42,1.63s3.4-.87,4.42-1.63c.93-.7,1.67-1.25,3.27-1.25.53,0,.96-.43.96-.96s-.43-.96-.96-.96Z"/>
  <path class="cls-1" d="M61.93,54.67c-2.24,0-3.4.87-4.42,1.63-.93.7-1.67,1.25-3.27,1.25s-2.34-.55-3.27-1.25c-1.02-.77-2.18-1.63-4.42-1.63s-3.4.87-4.42,1.63c-.93.7-1.67,1.25-3.27,1.25s-2.34-.55-3.27-1.25c-1.02-.77-2.18-1.63-4.42-1.63s-3.4.87-4.42,1.63c-.93.7-1.67,1.25-3.27,1.25s-2.34-.55-3.27-1.25c-1.02-.77-2.18-1.63-4.42-1.63-.53,0-.96.43-.96.96s.43.96.96.96c1.6,0,2.34.55,3.27,1.25,1.02.77,2.18,1.63,4.42,1.63s3.4-.87,4.42-1.63c.93-.7,1.67-1.25,3.27-1.25s2.34.55,3.27,1.25c1.02.77,2.18,1.63,4.42,1.63s3.4-.87,4.42-1.63c.93-.7,1.67-1.25,3.27-1.25s2.34.55,3.27,1.25c1.02.77,2.18,1.63,4.42,1.63s3.4-.87,4.42-1.63c.93-.7,1.67-1.25,3.27-1.25.53,0,.96-.43.96-.96s-.43-.96-.96-.96Z"/>
  <path class="cls-1" d="M35.98,26.79h-7.69c-.53,0-.96.43-.96.96s.43.96.96.96h7.69c.53,0,.96-.43.96-.96s-.43-.96-.96-.96Z"/>
</svg>