<?xml version="1.0" encoding="UTF-8"?>
<svg id="Layer_1" data-name="Layer 1" xmlns="http://www.w3.org/2000/svg" viewBox="0 0 78 78">
  <defs>
    <style>
      .cls-1 {
        fill: #164893;
        stroke-width: 0px;
      }
    </style>
  </defs>
  <path class="cls-1" d="M63.02,20.46c-.09-1.6-1.41-2.86-3-2.86h-.15c-.47.03-.95.04-1.42.04-8.73,0-15.01-4.21-17.3-6.01-1.06-.83-2.61-.83-3.67,0-2.29,1.81-8.57,6.02-17.23,6.02-.5,0-1-.01-1.53-.04-1.65,0-3.02,1.25-3.12,2.86-.51,8.77-.38,37.93,22.86,44.96.27.08.56.13.85.13s.58-.04.85-.13c23.25-7.03,23.38-36.19,22.86-44.96ZM18.59,20.16l.02.25c.52.03,1.04.04,1.56.04,9.54,0,16.43-4.57,18.95-6.54.11-.09.28-.09.39,0,2.52,1.97,9.41,6.54,18.93,6.54.48,0,.97-.01,1.47-.04.17,0,.3.13.31.3.47,8.23.36,35.58-20.76,42-.07.02-.12.02-.19,0-20.31-6.14-21.45-31.42-21-42,0-.08.04-.16.1-.22.06-.05.13-.08.21-.08v-.25h0Z"/>
  <path class="cls-1" d="M36.59,46.16c.27.27.62.41,1,.41s.73-.15,1-.41l12.07-12.07c.27-.27.41-.62.41-1s-.15-.73-.41-1c-.53-.53-1.46-.53-1.99,0l-10.85,10.85c-.12.12-.33.12-.45,0l-3.95-3.95c-.53-.53-1.46-.53-1.99,0-.27.27-.41.62-.41,1s.15.73.41,1l5.17,5.17Z"/>
</svg>